<svg xmlns="http://www.w3.org/2000/svg" viewBox="0 0 40 40"><path fill="#4285f4" d="M36.7 20.4c0-1.4-.1-2.7-.4-4H20v7h9.3c-.4 2.2-1.7 4-3.5 5.3v4.6h5.7c3.3-3 5.2-7.5 5.2-12.9z"/><path fill="#34a853" d="M20 37.3c4.7 0 8.6-1.5 11.5-4.2l-5.7-4.6c-1.6 1.1-3.6 1.8-5.8 1.8-4.5 0-8.4-3-9.8-7.2H4.3v4.8A17.3 17.3 0 0 0 20 37.3z"/><path fill="#fbbc05" d="M10.2 23.1A10.4 10.4 0 0 1 10.2 17V12.2H4.3a17.3 17.3 0 0 0 0 15.7l5.9-4.8z"/><path fill="#ea4335" d="M20 9.7c2.6 0 4.9.9 6.7 2.6l5-5C28.6 4.4 24.7 2.7 20 2.7A17.3 17.3 0 0 0 4.3 12.2l5.9 4.8c1.4-4.2 5.3-7.3 9.8-7.3z"/></svg>
