<svg xmlns="http://www.w3.org/2000/svg" viewBox="0 0 40 40"><path fill="#111" d="M25.2 27.5c-1.8 1.4-4.4 2.1-6.6 2.1-3.1 0-5.9-1.2-8-3.1-.2-.2 0-.5.3-.4 2.3 1.3 5.1 2.1 8 2.1 2 0 4.2-.4 6.2-1.2.3-.1.5.2.1.5zM26.1 26.5c.4-.5-2.9-.2-4-.1-.3 0-.4-.2-.1-.4 1.8-1.3 4.7-.9 5.1-.4.4.5-.1 3.4-1.8 4.6-.3.2-.5.1-.3-.2.7-.9 1-3.1 1.1-3.5z"/><path fill="#111" d="M20.3 19.1c0 1.1 0 2 .5 3 .4.7.9 1.1 1.5 1.1.8 0 1.3-.6 1.3-1.5 0-1.2-.7-2.7-3.3-2.6v0zm4.4 6.7c-.3.2-.8.2-1.1 0-.5-.4-1-.9-1.3-1.5-1.3 1.3-2.2 1.7-3.9 1.7-2 0-3.5-1.2-3.5-3.7 0-2 1.1-3.3 2.6-4 1.3-.6 3.1-.7 4.5-.9v-.3c0-.6 0-1.4-.3-1.9-.3-.5-.8-.7-1.3-.7-1 0-1.9.5-2.1 1.5-.1.2-.2.5-.5.5l-2.3-.2c-.2 0-.5-.2-.4-.6.5-2.5 2.7-3.3 4.7-3.5h.5c2 0 4.7.5 5.4 3.1.3 1 .3 2.2.3 3.3v3c0 .9.4 1.3.7 1.8.1.2.1.4 0 .5-.4.3-1 .8-1.4 1.1l-.1.1z"/><path fill="#ff9900" d="M9 31.8c6.3 4.6 15.7 4.2 21.3-.4.5-.4.1-1-.5-.7-6.1 3.5-13.4 3.7-20.4.2-.6-.3-1 .4-.4.9z"/></svg>
